<svg t="1742204238693" class="icon" viewBox="0 0 1536 1024" version="1.1" xmlns="http://www.w3.org/2000/svg" p-id="6276" width="256" height="256"><path d="M0 34.133333C0 15.36 15.36 0 34.133333 0h1467.733334c18.773333 0 34.133333 15.36 34.133333 34.133333v955.733334a34.133333 34.133333 0 0 1-34.133333 34.133333H34.133333a34.133333 34.133333 0 0 1-34.133333-34.133333V34.133333zM213.333333 256v512H341.333333V471.637333l192 224L725.333333 471.637333V768H853.333333V256H723.285333L533.333333 499.029333 343.381333 256H213.333333z m1109.333334 256h-119.466667V256h-128v256h-122.026667l184.746667 256L1322.666667 512z" fill="#2C2C2C" p-id="6277"></path></svg>