<svg t="1742219757703" class="icon" viewBox="0 0 1024 1024" version="1.1" xmlns="http://www.w3.org/2000/svg" p-id="3840" width="256" height="256"><path d="M869.333333 348.757333c6.954667-17.066667 29.354667-84.778667-6.954666-176.512 0 0-55.978667-17.621333-183.466667 69.333334-53.333333-14.933333-110.378667-17.066667-166.912-17.066667-56.533333 0-113.578667 2.133333-166.912 17.066667-127.488-87.466667-183.466667-69.333333-183.466667-69.333334-36.266667 91.733333-13.866667 159.445333-6.954666 176.512C111.445333 395.178667 85.333333 454.912 85.333333 527.445333c0 274.645333 177.578667 336.512 425.6 336.512S938.666667 802.090667 938.666667 527.445333c0-72.533333-26.154667-132.266667-69.333334-178.688zM512 811.690667c-176 0-318.933333-7.978667-318.933333-178.645334 0-40.533333 20.266667-78.933333 54.4-110.421333 57.088-52.266667 154.666667-24.533333 264.533333-24.533333 110.421333 0 206.933333-27.733333 264.533333 24.533333 34.688 31.488 54.4 69.333333 54.4 110.421333 0 170.112-142.933333 178.645333-318.933333 178.645334z m-133.845333-267.178667c-35.2 0-64 42.666667-64 94.933333s28.757333 95.445333 64 95.445334c35.2 0 64-42.666667 64-95.445334 0-52.821333-28.8-94.933333-64-94.933333z m267.690666 0c-35.2 0-64 42.112-64 94.933333 0 52.778667 28.8 95.445333 64 95.445334s64-42.666667 64-95.445334c0-52.821333-28.245333-94.933333-64-94.933333z" fill="#000000" p-id="3841"></path></svg>